<svg width="23" height="20" viewBox="0 0 23 20" fill="none" xmlns="http://www.w3.org/2000/svg">
<path d="M2.16667 2.66666C2.16667 2.29999 2.46667 1.99999 2.83333 1.99999H5.5C5.86667 1.99999 6.16667 2.29999 6.16667 2.66666V8.88749C6.16667 9.13332 6.3 9.35832 6.52083 9.47499C6.74167 9.59166 7 9.57916 7.20417 9.44166L12.9833 5.58749C13.2042 5.44166 13.5 5.59999 13.5 5.86666V9.27916C13.5 9.52916 13.6417 9.75832 13.8625 9.87082C14.0833 9.98332 14.3542 9.96666 14.5542 9.81666L20.3042 5.67916C20.525 5.52082 20.8333 5.67916 20.8333 5.94999V12V12.6667V16.6667C20.8333 17.4042 20.2375 18 19.5 18H3.5C2.7625 18 2.16667 17.4042 2.16667 16.6667V14V12V2.66666ZM2.83333 0.666656C1.72917 0.666656 0.833334 1.56249 0.833334 2.66666V12V14V16.6667C0.833334 18.1375 2.02917 19.3333 3.5 19.3333H19.5C20.9708 19.3333 22.1667 18.1375 22.1667 16.6667V12.6667V12V5.95416C22.1667 4.59582 20.6292 3.80832 19.525 4.59999L14.8333 7.97916V5.86666C14.8333 4.53749 13.35 3.74166 12.2417 4.47916L7.5 7.64166V2.66666C7.5 1.56249 6.60417 0.666656 5.5 0.666656H2.83333ZM5.16667 12C4.6125 12 4.16667 12.4458 4.16667 13V15C4.16667 15.5542 4.6125 16 5.16667 16H7.16667C7.72083 16 8.16667 15.5542 8.16667 15V13C8.16667 12.4458 7.72083 12 7.16667 12H5.16667ZM9.5 13V15C9.5 15.5542 9.94583 16 10.5 16H12.5C13.0542 16 13.5 15.5542 13.5 15V13C13.5 12.4458 13.0542 12 12.5 12H10.5C9.94583 12 9.5 12.4458 9.5 13ZM10.8333 14.6667V13.3333H12.1667V14.6667H10.8333ZM15.8333 12C15.2792 12 14.8333 12.4458 14.8333 13V15C14.8333 15.5542 15.2792 16 15.8333 16H17.8333C18.3875 16 18.8333 15.5542 18.8333 15V13C18.8333 12.4458 18.3875 12 17.8333 12H15.8333ZM17.5 14.6667H16.1667V13.3333H17.5V14.6667ZM5.5 14.6667V13.3333H6.83333V14.6667H5.5Z" fill="black" fill-opacity="0.87"/>
</svg>
