<svg width="24" height="24" viewBox="0 0 24 24" fill="none" xmlns="http://www.w3.org/2000/svg">
<g clip-path="url(#clip0_1_397)">
<path d="M16.5 0.75C16.5 1.1625 16.8375 1.5 17.25 1.5H19.9406L13.4625 7.97812L8.7375 3.93281C8.45625 3.69375 8.04375 3.69375 7.7625 3.93281L2.5125 8.43281C2.19844 8.70469 2.16094 9.17813 2.43281 9.49219C2.70469 9.80625 3.17813 9.84375 3.49219 9.57187L8.25 5.48906L13.0125 9.57187C13.3078 9.825 13.7531 9.81094 14.0297 9.53437L21 2.55937V5.25C21 5.6625 21.3375 6 21.75 6C22.1625 6 22.5 5.6625 22.5 5.25V0.75C22.5 0.3375 22.1625 0 21.75 0H17.25C16.8375 0 16.5 0.3375 16.5 0.75ZM22.5 14.25V15.75C21.2578 15.75 20.25 14.7422 20.25 13.5H21.75C22.1625 13.5 22.5 13.8375 22.5 14.25ZM5.25 13.5H18.75C18.75 15.5719 20.4281 17.25 22.5 17.25V18.75C20.4281 18.75 18.75 20.4281 18.75 22.5H5.25C5.25 20.4281 3.57188 18.75 1.5 18.75V17.25C3.57188 17.25 5.25 15.5719 5.25 13.5ZM20.25 22.5C20.25 21.2578 21.2578 20.25 22.5 20.25V21.75C22.5 22.1625 22.1625 22.5 21.75 22.5H20.25ZM1.5 20.25C2.74219 20.25 3.75 21.2578 3.75 22.5H2.25C1.8375 22.5 1.5 22.1625 1.5 21.75V20.25ZM3.75 13.5C3.75 14.7422 2.74219 15.75 1.5 15.75V14.25C1.5 13.8375 1.8375 13.5 2.25 13.5H3.75ZM2.25 12C1.00781 12 0 13.0078 0 14.25V21.75C0 22.9922 1.00781 24 2.25 24H21.75C22.9922 24 24 22.9922 24 21.75V14.25C24 13.0078 22.9922 12 21.75 12H2.25ZM10.5 18C10.5 17.6022 10.658 17.2206 10.9393 16.9393C11.2206 16.658 11.6022 16.5 12 16.5C12.3978 16.5 12.7794 16.658 13.0607 16.9393C13.342 17.2206 13.5 17.6022 13.5 18C13.5 18.3978 13.342 18.7794 13.0607 19.0607C12.7794 19.342 12.3978 19.5 12 19.5C11.6022 19.5 11.2206 19.342 10.9393 19.0607C10.658 18.7794 10.5 18.3978 10.5 18ZM15 18C15 17.2044 14.6839 16.4413 14.1213 15.8787C13.5587 15.3161 12.7956 15 12 15C11.2044 15 10.4413 15.3161 9.87868 15.8787C9.31607 16.4413 9 17.2044 9 18C9 18.7956 9.31607 19.5587 9.87868 20.1213C10.4413 20.6839 11.2044 21 12 21C12.7956 21 13.5587 20.6839 14.1213 20.1213C14.6839 19.5587 15 18.7956 15 18Z" fill="black" fill-opacity="0.87"/>
</g>
<defs>
<clipPath id="clip0_1_397">
<rect width="24" height="24" fill="white"/>
</clipPath>
</defs>
</svg>
